<svg xmlns="http://www.w3.org/2000/svg" viewBox="0 0 287.37 339.75"><path d="M287.21,192.56c-.08-2.93-.15-6-.15-8.94V0H.31V183.62c0,.67,0,1.34,0,2,0,2.34-.09,4.69-.15,6.95-.29,11.64-.6,23.68,3.43,37.37,4.51,15.29,13.53,29.72,28.4,45.41,35.32,37.24,104.77,62,107.71,63l4,1.4,4-1.4c2.75-1,63.7-22.66,100.47-56,1-.89,2-1.8,2.93-2.74,1.49-1.4,2.92-2.85,4.31-4.31,1.66-1.75,3.1-3.33,4.43-4.84l.17-.19q3.25-3.69,6.1-7.35c.32-.4.62-.79.92-1.19q2-2.58,3.71-5.12c.32-.46.63-.91.93-1.37,1-1.55,2-3,2.87-4.53a91.87,91.87,0,0,0,7.59-15.71c.56-1.53,1.1-3.14,1.58-4.77a84.22,84.22,0,0,0,3.13-15.92A169.1,169.1,0,0,0,287.21,192.56Zm-40.54,74.53q-2.56,2.7-5.38,5.31c-3.56,3.3-7.39,6.5-11.41,9.57l-.57.43C193.59,309.47,143.68,327,143.68,327s-69.26-24.37-103-59.94c-27-28.54-29-48.39-28.66-68.44.05-3.31.16-6.63.22-10,0-1,0-1.9.05-2.86,0-.72,0-1.44,0-2.17V12H275.06V183.62c0,10.07.81,19.57-.2,29.53,0,.32-.07.65-.11,1a71.49,71.49,0,0,1-1.63,9.26c-.06.24-.12.49-.19.74-.22.9-.47,1.81-.75,2.72-.4,1.34-.85,2.7-1.36,4.08-.32.87-.66,1.74-1,2.62h0a80.41,80.41,0,0,1-5,10h0l-.62,1.06c-.8,1.34-1.66,2.69-2.59,4.07-.25.39-.51.77-.78,1.16-.71,1-1.45,2.08-2.22,3.13-2.24,3-4.77,6.16-7.63,9.4h0l-.52.59Q248.65,265,246.67,267.09Z" style="fill:#f37049"/><path d="M43.84,179.22H1.31v-10H43.84a68.95,68.95,0,1,0,0-137.89H1.31v-10H43.84a78.95,78.95,0,1,1,0,157.89Z" style="fill:#f37049"/><path d="M43.84,159.79v-10a49.52,49.52,0,0,0,0-99H1.31v-10H43.84a59.52,59.52,0,0,1,0,119Z" style="fill:#f37049"/><path d="M43.84,179.22v-10a68.95,68.95,0,1,0,0-137.89v-10a78.95,78.95,0,1,1,0,157.89Z" style="fill:#f37049"/><path d="M43.84,198.65H1.31v-10H43.84a88.38,88.38,0,1,0,0-176.75H1.31V1.9H43.84a98.38,98.38,0,1,1,0,196.75Z" style="fill:#f37049"/><path d="M43.84,159.79H1.31v-10H43.84a49.52,49.52,0,0,0,0-99v-10a59.52,59.52,0,0,1,0,119Z" style="fill:#f37049"/><path d="M43.84,140.37H1.22v-10H43.84a30.1,30.1,0,0,0,0-60.19H1.31v-10H43.84a40.1,40.1,0,0,1,0,80.19Z" style="fill:#f37049"/><path d="M43.84,140.37v-10a30.1,30.1,0,0,0,0-60.19v-10a40.1,40.1,0,0,1,0,80.19Z" style="fill:#f37049"/><path d="M137.16,282.4a97.95,97.95,0,0,1-55.28-17.83,99.5,99.5,0,0,1-16.21-14.28,98.07,98.07,0,0,1-19-30.7l-.1-.27c-.23-.73-.5-1.44-.79-2.13A30,30,0,0,0,18,198.65H1.22v-10H18a40,40,0,0,1,37,24.67c.38.88.73,1.83,1,2.79a88.19,88.19,0,0,0,17.05,27.44,88.38,88.38,0,0,0,30.67,21.8,87.49,87.49,0,0,0,33.55,7Z" style="fill:#f37049"/><path d="M137.14,263a78.26,78.26,0,0,1-30.68-6.71A79.22,79.22,0,0,1,65,213.09c-.4-1-.78-2-1.12-3a49.13,49.13,0,0,0-8.91-14.27,49.42,49.42,0,0,0-37-16.59v-10A59.4,59.4,0,0,1,62.4,189.15a59.24,59.24,0,0,1,10.76,17.3l.09.24c.31.89.65,1.8,1,2.72a69.08,69.08,0,0,0,36.25,37.7A68.17,68.17,0,0,0,137.29,253Z" style="fill:#f37049"/><path d="M137.08,243.54h-.44l-.6,0-.69,0-1-.06-.64,0-.67-.06-.8-.08-1-.11-.84-.1-.62-.09-.52-.08-1.53-.25-.67-.13c-.93-.17-1.91-.39-2.87-.63l-.73-.18a57.48,57.48,0,0,1-6.41-2c-.38-.14-.79-.3-1.19-.47l-.22-.09-.51-.21c-.67-.28-1.42-.62-2.17-1l-.85-.41-.86-.44c-.42-.21-.85-.43-1.28-.67l-.62-.34-.6-.34c-1-.61-2.12-1.26-3.15-1.94l-.77-.52-.11-.08-.3-.21-.18-.12-.62-.44-.15-.11-.78-.57-.48-.37c-.39-.3-.79-.61-1.17-.92l-.44-.35-.09-.08-.59-.49-.46-.4c-.25-.21-.43-.37-.61-.54s-.34-.3-.54-.47c-.65-.6-1.35-1.26-2-1.95-.5-.5-1-1-1.48-1.54s-1-1.05-1.43-1.59l-.92-1.08c-.29-.36-.56-.68-.81-1a2.35,2.35,0,0,1-.19-.25c-.24-.29-.52-.66-.8-1l-.34-.45c-.46-.63-.88-1.24-1.3-1.86l-.69-1-.53-.84-.33-.53c-.25-.41-.52-.87-.78-1.33-.18-.31-.34-.61-.5-.9s-.34-.62-.5-.93l-.44-.85c-.19-.36-.37-.73-.55-1.1-.43-.9-.82-1.77-1.18-2.61-.12-.3-.24-.58-.35-.87l-.08-.21c-.32-.91-.65-1.82-1-2.72a69.46,69.46,0,0,0-7.31-13.69A68.48,68.48,0,0,0,62.2,175.87c-.26-.23-.53-.45-.81-.67A68.62,68.62,0,0,0,18,159.79v-10a78.74,78.74,0,0,1,49.72,17.62l1,.79A78.86,78.86,0,0,1,83,184a78.59,78.59,0,0,1,8.37,15.67c.38.95.75,1.93,1.12,3l.27.64c.27.67.59,1.38.94,2.1l.47.94.38.74c.13.26.25.47.36.67l.08.14c.12.23.25.47.39.7s.41.71.63,1.07l.3.48c.16.28.29.47.42.67s.39.6.58.88c.35.52.7,1,1.06,1.51l.33.45.68.89.09.11.69.86.76.89c.4.47.8.91,1.21,1.35s.81.86,1.24,1.28,1.12,1.1,1.71,1.63l.42.38,1.49,1.27.23.19.13.1c.3.25.61.5.92.73l.12.09.31.24.11.08.55.41.15.11.47.33,1.17.79c.84.56,1.73,1.1,2.62,1.62l.44.25.1,0,.43.24,1.1.58.68.34.72.35c.62.29,1.23.57,1.84.82l.63.27.92.36A47.78,47.78,0,0,0,126,232l.58.15c.81.2,1.61.37,2.4.52l.5.1,1.35.22.45.07.43.06.62.08h.11l.86.1.64.06,1.06.08.82.05.64,0,.88,0Z" style="fill:#f37049"/><path d="M137.11,224.11l-.68,0h-.19l-.73,0-.2,0-1-.08h-.11l-.83-.1c-.92-.11-1.85-.26-2.77-.45l-.53-.1-.8-.18-.78-.19-.67-.17-.66-.19c-.58-.17-1.18-.35-1.77-.56l-.4-.14-.64-.23-1.59-.63-.82-.36c-.56-.25-1.12-.52-1.68-.8l-.7-.37c-.24-.12-.52-.27-.81-.44l-.44-.25c-.41-.24-.84-.49-1.26-.76l-.57-.36c-.41-.27-.83-.55-1.24-.85l-.42-.3-.54-.39-.62-.48L113,215l-.25-.2-2-1.28V213l-.35-.34-.57-.57c-.17-.16-.32-.33-.48-.5a39.21,39.21,0,0,1-2.81-3.31l-.47-.62c-.45-.61-.93-1.32-1.39-2l-.4-.63c-.32-.52-.63-1.05-.92-1.59-.1-.18-.23-.4-.34-.63-.24-.44-.46-.88-.67-1.32s-.42-.89-.62-1.36l-.23-.51-.1-.25c-.08-.2-.17-.4-.24-.6s-.24-.6-.35-.92a.36.36,0,0,0,0-.09l-.64-.65v-1.14a87.58,87.58,0,0,0-8.1-15.54,87.75,87.75,0,0,0-8.65-11.16q-1.53-1.68-3-3.15a88.92,88.92,0,0,0-11.56-9.7c-1.29-.9-2.65-1.8-4-2.66a86.87,86.87,0,0,0-12.07-6.29A87.63,87.63,0,0,0,18,140.37v-10a98.08,98.08,0,0,1,52,14.87c1.52.95,3,1.95,4.47,3A99.29,99.29,0,0,1,87.31,159c1.1,1.08,2.24,2.27,3.37,3.51a99.5,99.5,0,0,1,9.63,12.42,98,98,0,0,1,9,17.3l.12.12.6,1.82a1.07,1.07,0,0,0,.07.19l.26.71.19.46.1.24.09.21.07.15c.14.33.3.67.46,1s.31.64.47.94l.06.11a3.9,3.9,0,0,0,.19.35c.25.45.47.84.71,1.22l.33.53c.33.51.68,1,1,1.52.12.18.21.29.3.41a28.48,28.48,0,0,0,2.14,2.53l.26.27.14.13c.11.12.22.24.34.35l.08.08.33.32c.28.27.54.5.79.72l.11.09.06.06.11.07.42.38.11.09.57.46.48.37.36.26.08.06.24.17c.37.27.68.48,1,.68l.37.23,1,.6.39.22.54.3.45.23.1,0c.4.21.8.4,1.21.58l.63.28,1.23.49.74.26,1.35.42.95.26.55.14.12,0,.54.12.33.07c.78.15,1.47.26,2.15.34l.11,0,.51.06h.12l.56.05h.12l.69,0,.58,0Z" style="fill:#f37049"/><path d="M281.69,105.08v10H239.16a69,69,0,0,0-68.95,69c0,.92,0,1.85.06,2.76,0,.37,0,.74,0,1.12s0,.5.05.76c0,.53.07,1.06.13,1.6,0,.1,0,.2,0,.3.12,1.29.28,2.59.48,3.87,0,.21.06.43.1.64.09.57.19,1.13.3,1.69s.27,1.38.42,2.07a.07.07,0,0,0,0,0q.22,1,.48,2c.17.66.34,1.31.52,2l0,.1c.2.68.4,1.36.62,2,.14.45.29.9.44,1.34s.31.91.48,1.35.39,1.06.6,1.58c.4,1,.84,2.07,1.31,3.09.22.51.46,1,.71,1.52s.48,1,.74,1.49.46.9.7,1.35a69.08,69.08,0,0,0,35.44,31.45c.52.21,1,.41,1.58.6s1.06.39,1.59.56c.36.13.73.25,1.09.36.67.22,1.34.42,2,.61q.76.23,1.53.42l1.55.38,1.55.35c1,.22,2.09.42,3.14.59.52.09,1.05.17,1.58.24,1.06.15,2.12.27,3.18.37q3.21.3,6.45.3H267v8.81c-.3.4-.6.79-.92,1.19H237.31c-1.24,0-2.47-.09-3.69-.17l-1.84-.15-1.54-.16a4.35,4.35,0,0,1-.52-.06l-1.59-.21-1.7-.25-.36-.06-1.43-.26a1.08,1.08,0,0,1-.27-.05c-.55-.1-1.09-.21-1.64-.33s-.93-.19-1.38-.3q-.93-.21-1.83-.45c-.71-.17-1.41-.36-2.1-.56-1.34-.39-2.68-.81-4-1.27h0a79.14,79.14,0,0,1-43.71-37.16c-.58-1.08-1.14-2.16-1.65-3.27-.28-.58-.55-1.16-.82-1.74s-.52-1.17-.77-1.76c-.52-1.24-1-2.5-1.48-3.77-.13-.34-.25-.68-.36-1-.22-.61-.43-1.23-.62-1.85-.25-.78-.48-1.55-.71-2.33a.65.65,0,0,1,0-.13c-.43-1.52-.81-3.06-1.15-4.6-.17-.8-.34-1.59-.49-2.39q-.45-2.4-.75-4.83c-.09-.72-.17-1.46-.24-2.19q0-.31-.06-.63c-.05-.57-.1-1.14-.13-1.72,0-.19,0-.37,0-.55,0-.6-.07-1.2-.08-1.8,0-.95-.06-1.92-.06-2.88a79,79,0,0,1,78.95-78.95Z" style="fill:#f37049"/><path d="M277.19,243.54h-38a59.52,59.52,0,1,1,0-119v10a49.52,49.52,0,0,0,0,99h38Z" style="fill:#f37049"/><path d="M239.16,263a78.95,78.95,0,1,1,0-157.89v10a68.95,68.95,0,1,0,0,137.89Z" style="fill:#f37049"/><path d="M281.69,85.65v10H239.16A88.48,88.48,0,0,0,150.79,184a88.38,88.38,0,0,0,88.37,88.37h11.9v7.26c-1,.94-1.94,1.85-2.93,2.74h-9q-4.68,0-9.28-.43a96.74,96.74,0,0,1-34-9.57A98.62,98.62,0,0,1,180.47,263l-1.38-1a98.86,98.86,0,0,1-10.1-9,96.13,96.13,0,0,1-8.14-9.42c-.53-.69-1-1.39-1.55-2.09q-2.78-3.84-5.15-7.91a95.28,95.28,0,0,1-4.84-9.43c-.47-1-.91-2.07-1.33-3.12q-1.38-3.41-2.5-6.88A98.45,98.45,0,0,1,239.16,85.65Z" style="fill:#f37049"/><path d="M239.16,243.55a59.52,59.52,0,0,1,0-119h42.53v10H239.16a49.52,49.52,0,0,0,0,99Z" style="fill:#f37049"/><path d="M281.69,224.12H239.16a40.09,40.09,0,0,1,0-80.18h42.62v10H239.16a30.09,30.09,0,0,0,0,60.18h42.53Z" style="fill:#f37049"/><path d="M239.16,224.12a40.09,40.09,0,0,1,0-80.18v10a30.09,30.09,0,0,0,0,60.18Z" style="fill:#f37049"/><rect x="137.21" y="233.55" width="26.16" height="10" style="fill:#f37049"/><rect x="239.16" y="233.55" width="33.96" height="10" style="fill:#f37049"/><polygon points="189.21 243.55 189.2 243.55 189.2 233.55 189.21 243.55" style="fill:#f37049"/><path d="M267,253v8.81c-.3.4-.6.79-.92,1.19H238.21V253Z" style="fill:#f37049"/><rect x="137.21" y="252.97" width="44.94" height="10" style="fill:#f37049"/><rect x="137.21" y="214.12" width="15.41" height="10" style="fill:#f37049"/><polygon points="197.45 224.12 197.44 224.12 197.44 214.12 197.45 224.12" style="fill:#f37049"/><rect x="239.16" y="214.12" width="33.96" height="10" style="fill:#f37049"/><polygon points="174.06 224.12 174.05 224.12 174.05 214.12 174.06 224.12" style="fill:#f37049"/><path d="M251.06,272.4v7.26c-1,.94-1.94,1.85-2.93,2.74H137.21v-10Z" style="fill:#f37049"/></svg>